# xmcd
#
# Track frame offsets:
# 150
# 20090
# 40710
# 58070
# 76132
# 96095
# 122762
# 146495
# 171960
# 187470
# 203372
#
# Disc length: 2998 seconds
#
#
# Revision: 4
# Processed by: cddbd v1.4PL0 Copyright (c) Steve Scherf et al.
# Submitted via: FreeRIP 2.35 
#
DISCID=950bb40b
DTITLE=Charlie Rich - Pictures and Paintings
DYEAR=1900
DGENRE=blues
TTITLE0=Pictures and Paintings
TTITLE1=You Don't Know Me
TTITLE2=Don't Put No Headstone on My Grave
TTITLE3=Anywhere You Are
TTITLE4=Somebody Broke into My Heart
TTITLE5=Mood Indigo
TTITLE6=Every Time You Touch Me (I Get High)
TTITLE7=Juice Head Baby
TTITLE8=Am I Blue?
TTITLE9=Go Ahead and Cry
TTITLE10=Feel Like Going Home
EXTD=
EXTT0=
EXTT1=
EXTT2=
EXTT3=
EXTT4=
EXTT5=
EXTT6=
EXTT7=
EXTT8=
EXTT9=
EXTT10=
PLAYORDER=
